HIERARCHY
ROOT Hips
{
	OFFSET 0.000000 97.167313 0.000000
	CHANNELS 6 Xposition Yposition Zposition Xrotation Yrotation Zrotation
	JOINT Spine
	{
		OFFSET 0.000000 13.784798 0.064400
		CHANNELS 3 Xrotation Yrotation Zrotation
		JOINT Spine1
		{
			OFFSET 0.000000 12.037903 0.404700
			CHANNELS 3 Xrotation Yrotation Zrotation
			JOINT Spine2
			{
				OFFSET 0.000000 17.795601 0.420200
				CHANNELS 3 Xrotation Yrotation Zrotation
				JOINT Neck
				{
					OFFSET 0.000000 39.131302 11.954600
					CHANNELS 3 Xrotation Yrotation Zrotation
					JOINT Head
					{
						OFFSET 0.000000 14.456192 15.627699
						CHANNELS 3 Xrotation Yrotation Zrotation
						JOINT HeadTop_End
						{
							OFFSET 0.000000 15.703506 7.603401
							CHANNELS 3 Xrotation Yrotation Zrotation
							End Site
							{
								OFFSET 0.000000 17.447403 0.000000
							}
						}
					}
				}
				JOINT LeftShoulder
				{
					OFFSET 17.399500 24.608795 1.168800
					CHANNELS 3 Xrotation Yrotation Zrotation
					JOINT LeftArm
					{
						OFFSET 18.980635 5.765305 1.818600
						CHANNELS 3 Xrotation Yrotation Zrotation
						JOINT LeftForeArm
						{
							OFFSET 49.290169 0.000000 0.000000
							CHANNELS 3 Xrotation Yrotation Zrotation
							JOINT LeftHand
							{
								OFFSET 31.562012 0.000000 0.000000
								CHANNELS 3 Xrotation Yrotation Zrotation
								JOINT LeftHandThumb1
								{
									OFFSET 6.133995 -4.388519 7.076070
									CHANNELS 3 Xrotation Yrotation Zrotation
									JOINT LeftHandThumb2
									{
										OFFSET 6.037666 -3.485840 3.485847
										CHANNELS 3 Xrotation Yrotation Zrotation
										JOINT LeftHandThumb3
										{
											OFFSET 6.496506 -3.750763 3.750761
											CHANNELS 3 Xrotation Yrotation Zrotation
											JOINT LeftHandThumb4
											{
												OFFSET 5.616882 -3.242905 3.242910
												CHANNELS 3 Xrotation Yrotation Zrotation
												End Site
												{
													OFFSET -1.254608 7.132141 0.375429
												}
											}
										}
									}
								}
								JOINT LeftHandPinky1
								{
									OFFSET 18.920792 -0.453171 -11.426712
									CHANNELS 3 Xrotation Yrotation Zrotation
									JOINT LeftHandPinky2
									{
										OFFSET 4.919586 0.000000 0.000000
										CHANNELS 3 Xrotation Yrotation Zrotation
										JOINT LeftHandPinky3
										{
											OFFSET 5.233047 0.000000 0.000000
											CHANNELS 3 Xrotation Yrotation Zrotation
											JOINT LeftHandPinky4
											{
												OFFSET 5.571716 0.000000 0.000000
												CHANNELS 3 Xrotation Yrotation Zrotation
												End Site
												{
													OFFSET -3.459808 4.342407 -0.466164
												}
											}
										}
									}
								}
								JOINT LeftHandRing1
								{
									OFFSET 22.726120 -0.094986 -6.500475
									CHANNELS 3 Xrotation Yrotation Zrotation
									JOINT LeftHandRing2
									{
										OFFSET 6.408615 0.000000 0.000000
										CHANNELS 3 Xrotation Yrotation Zrotation
										JOINT LeftHandRing3
										{
											OFFSET 6.150223 0.000000 0.000000
											CHANNELS 3 Xrotation Yrotation Zrotation
											JOINT LeftHandRing4
											{
												OFFSET 6.145386 0.000000 0.000000
												CHANNELS 3 Xrotation Yrotation Zrotation
												End Site
												{
													OFFSET -3.671402 4.923981 -0.202372
												}
											}
										}
									}
								}
								JOINT LeftHandMiddle1
								{
									OFFSET 23.373947 0.000000 0.000001
									CHANNELS 3 Xrotation Yrotation Zrotation
									JOINT LeftHandMiddle2
									{
										OFFSET 6.996567 0.000000 0.000000
										CHANNELS 3 Xrotation Yrotation Zrotation
										JOINT LeftHandMiddle3
										{
											OFFSET 7.015945 0.000000 0.000000
											CHANNELS 3 Xrotation Yrotation Zrotation
											JOINT LeftHandMiddle4
											{
												OFFSET 7.721573 0.000000 0.000000
												CHANNELS 3 Xrotation Yrotation Zrotation
												End Site
												{
													OFFSET -4.651108 6.158463 0.251582
												}
											}
										}
									}
								}
								JOINT LeftHandIndex1
								{
									OFFSET 21.310577 -0.490082 6.209344
									CHANNELS 3 Xrotation Yrotation Zrotation
									JOINT LeftHandIndex2
									{
										OFFSET 7.536453 0.000000 0.000000
										CHANNELS 3 Xrotation Yrotation Zrotation
										JOINT LeftHandIndex3
										{
											OFFSET 7.512344 0.000000 0.000000
											CHANNELS 3 Xrotation Yrotation Zrotation
											JOINT LeftHandIndex4
											{
												OFFSET 10.212402 0.000000 0.000001
												CHANNELS 3 Xrotation Yrotation Zrotation
												End Site
												{
													OFFSET -5.180801 8.690506 1.388433
												}
											}
										}
									}
								}
							}
						}
					}
				}
				JOINT RightShoulder
				{
					OFFSET -17.399500 24.608795 1.168800
					CHANNELS 3 Xrotation Yrotation Zrotation
					JOINT RightArm
					{
						OFFSET -18.980635 5.765305 1.818600
						CHANNELS 3 Xrotation Yrotation Zrotation
						JOINT RightForeArm
						{
							OFFSET -49.290169 0.000000 0.000000
							CHANNELS 3 Xrotation Yrotation Zrotation
							JOINT RightHand
							{
								OFFSET -31.562012 0.000000 0.000000
								CHANNELS 3 Xrotation Yrotation Zrotation
								JOINT RightHandThumb1
								{
									OFFSET -6.133995 -4.388519 7.076070
									CHANNELS 3 Xrotation Yrotation Zrotation
									JOINT RightHandThumb2
									{
										OFFSET -6.037666 -3.485840 3.485847
										CHANNELS 3 Xrotation Yrotation Zrotation
										JOINT RightHandThumb3
										{
											OFFSET -6.496506 -3.750763 3.750761
											CHANNELS 3 Xrotation Yrotation Zrotation
											JOINT RightHandThumb4
											{
												OFFSET -5.616882 -3.242905 3.242910
												CHANNELS 3 Xrotation Yrotation Zrotation
												End Site
												{
													OFFSET 1.254608 7.132141 0.375429
												}
											}
										}
									}
								}
								JOINT RightHandIndex1
								{
									OFFSET -21.310577 -0.490082 6.209344
									CHANNELS 3 Xrotation Yrotation Zrotation
									JOINT RightHandIndex2
									{
										OFFSET -7.536453 0.000000 0.000000
										CHANNELS 3 Xrotation Yrotation Zrotation
										JOINT RightHandIndex3
										{
											OFFSET -7.512344 0.000000 0.000000
											CHANNELS 3 Xrotation Yrotation Zrotation
											JOINT RightHandIndex4
											{
												OFFSET -10.212402 0.000000 0.000001
												CHANNELS 3 Xrotation Yrotation Zrotation
												End Site
												{
													OFFSET 5.180801 8.690506 1.388433
												}
											}
										}
									}
								}
								JOINT RightHandMiddle1
								{
									OFFSET -23.373947 0.000000 0.000001
									CHANNELS 3 Xrotation Yrotation Zrotation
									JOINT RightHandMiddle2
									{
										OFFSET -6.996567 0.000000 0.000000
										CHANNELS 3 Xrotation Yrotation Zrotation
										JOINT RightHandMiddle3
										{
											OFFSET -7.015945 0.000000 0.000000
											CHANNELS 3 Xrotation Yrotation Zrotation
											JOINT RightHandMiddle4
											{
												OFFSET -7.721573 0.000000 0.000000
												CHANNELS 3 Xrotation Yrotation Zrotation
												End Site
												{
													OFFSET 4.651108 6.158463 0.251582
												}
											}
										}
									}
								}
								JOINT RightHandRing1
								{
									OFFSET -22.726120 -0.094986 -6.500475
									CHANNELS 3 Xrotation Yrotation Zrotation
									JOINT RightHandRing2
									{
										OFFSET -6.408615 0.000000 0.000000
										CHANNELS 3 Xrotation Yrotation Zrotation
										JOINT RightHandRing3
										{
											OFFSET -6.150223 0.000000 0.000000
											CHANNELS 3 Xrotation Yrotation Zrotation
											JOINT RightHandRing4
											{
												OFFSET -6.145386 0.000000 0.000000
												CHANNELS 3 Xrotation Yrotation Zrotation
												End Site
												{
													OFFSET 3.671402 4.923981 -0.202372
												}
											}
										}
									}
								}
								JOINT RightHandPinky1
								{
									OFFSET -18.920792 -0.453171 -11.426712
									CHANNELS 3 Xrotation Yrotation Zrotation
									JOINT RightHandPinky2
									{
										OFFSET -4.919586 0.000000 0.000000
										CHANNELS 3 Xrotation Yrotation Zrotation
										JOINT RightHandPinky3
										{
											OFFSET -5.233047 0.000000 0.000000
											CHANNELS 3 Xrotation Yrotation Zrotation
											JOINT RightHandPinky4
											{
												OFFSET -5.571716 0.000000 0.000000
												CHANNELS 3 Xrotation Yrotation Zrotation
												End Site
												{
													OFFSET 3.459808 4.342407 -0.466164
												}
											}
										}
									}
								}
							}
						}
					}
				}
			}
		}
	}
	JOINT LeftUpLeg
	{
		OFFSET 19.899099 -7.885101 -3.429500
		CHANNELS 3 Xrotation Yrotation Zrotation
		JOINT LeftLeg
		{
			OFFSET 1.745560 -36.997807 10.304700
			CHANNELS 3 Xrotation Yrotation Zrotation
			JOINT LeftFoot
			{
				OFFSET -1.745558 -29.803308 -13.615400
				CHANNELS 3 Xrotation Yrotation Zrotation
				JOINT LeftToeBase
				{
					OFFSET 1.181900 -18.539904 15.226099
					CHANNELS 3 Xrotation Yrotation Zrotation
					JOINT LeftToe_End
					{
						OFFSET -0.863701 1.402801 16.534700
						CHANNELS 3 Xrotation Yrotation Zrotation
						End Site
						{
							OFFSET 0.000000 16.616566 0.000000
						}
					}
				}
			}
		}
	}
	JOINT RightUpLeg
	{
		OFFSET -19.899099 -7.885101 -3.429500
		CHANNELS 3 Xrotation Yrotation Zrotation
		JOINT RightLeg
		{
			OFFSET -1.745560 -36.997807 10.304700
			CHANNELS 3 Xrotation Yrotation Zrotation
			JOINT RightFoot
			{
				OFFSET 1.745558 -29.803308 -13.615400
				CHANNELS 3 Xrotation Yrotation Zrotation
				JOINT RightToeBase
				{
					OFFSET -1.181900 -18.539904 15.226099
					CHANNELS 3 Xrotation Yrotation Zrotation
					JOINT RightToe_End
					{
						OFFSET 0.863701 1.402801 16.534700
						CHANNELS 3 Xrotation Yrotation Zrotation
						End Site
						{
							OFFSET 0.000000 16.616566 0.000000
						}
					}
				}
			}
		}
	}
}
MOTION
Frames: 4
Frame Time: 0.033333
8.183849 62.176758 -0.747978 -30.697124 24.197391 25.273718 14.362594 -12.119443 4.477076 1.361568 -2.848193 -0.144729 1.380800 -2.822187 -0.114131 3.479110 1.932760 -0.218965 8.764231 20.296749 -11.241913 -0.000000 -0.000000 0.000000 0.821066 -3.691069 4.575237 29.787234 12.015539 -12.825467 0.000017 -44.662286 0.000013 25.368390 -4.474859 -31.948937 4.972937 -0.919247 4.455778 7.416856 13.559460 3.778473 -10.276943 -8.025451 12.851079 0.000002 -0.000000 -0.000002 2.244615 16.205449 -22.664099 0.579235 2.541862 -25.670854 0.579232 2.541856 -25.670849 0.000003 -0.000001 0.000001 0.933463 5.741948 -20.414018 0.491122 2.349916 -23.606368 0.332578 1.947567 -19.379574 0.000002 0.000000 0.000003 -0.686698 0.199379 -14.655424 0.595544 2.575510 -26.036319 0.076699 0.945852 -9.271223 0.000002 -0.000003 0.000006 0.332623 -2.971049 -1.456185 0.830602 3.008823 -30.858272 0.830566 3.008790 -30.858276 0.000002 0.000001 0.000001 -1.714897 -9.899173 -0.739512 25.814896 -24.343619 19.738811 0.000005 41.661763 0.000006 14.434836 15.700730 12.176893 3.998970 2.832314 -3.864427 7.802590 -15.416777 -4.481830 -8.389258 2.112107 -14.768618 0.000002 0.000000 0.000001 0.387316 3.131511 0.644091 0.662456 -2.395996 30.906647 0.662460 -2.396006 30.906640 -0.000002 -0.000001 -0.000003 -0.709929 0.247545 13.910239 0.475075 -2.051045 26.079655 0.061509 -0.755164 9.311673 0.000003 -0.000003 -0.000007 0.807592 -5.199874 19.769400 0.391792 -1.871440 23.646668 0.265091 -1.550346 19.404880 -0.000002 -0.000001 -0.000000 1.997355 -15.634335 22.197618 0.462070 -2.024249 25.713748 0.462050 -2.024255 25.713746 -0.000002 -0.000003 0.000000 15.703547 19.793033 12.790701 79.223098 -8.781943 -2.241202 -8.355351 -1.089854 -16.589799 -60.803020 -0.008128 0.182207 -0.000001 0.000000 -0.000000 -46.376182 -9.745309 11.435728 31.831574 -1.025516 -0.502389 51.635865 -7.397278 -22.087394 -18.999592 -0.000009 -0.000008 0.000000 -0.000000 -0.000000 
3.808338 66.772133 -1.435614 -23.045388 17.426142 16.620845 14.848391 -12.321407 3.991341 1.272520 -2.974821 -0.185647 1.291711 -2.952150 -0.156349 2.879792 0.964387 0.232556 1.633785 8.278388 -4.304134 0.000000 -0.000001 -0.000000 0.919391 -4.216916 3.802343 26.544330 8.518556 -15.943562 0.000014 -46.424488 0.000002 25.126207 -1.723399 -26.532157 4.444170 -3.728245 5.294558 7.446400 14.951369 3.986433 -10.023682 -6.440066 13.415274 0.000000 0.000001 0.000001 2.204624 16.608208 -23.111530 0.608449 2.601691 -26.321686 0.604466 2.593636 -26.233971 0.000002 -0.000002 -0.000001 1.043315 6.002095 -20.796318 0.522925 2.421314 -24.370252 0.344601 1.981420 -19.730738 -0.000000 0.000001 0.000003 -0.654624 0.285693 -14.501229 0.584424 2.552662 -25.788069 0.073483 0.925886 -9.073702 0.000004 0.000001 0.000004 0.696888 -3.092246 -2.469678 0.671604 2.725511 -27.680639 0.627319 2.639450 -26.734462 -0.000001 0.000003 0.000001 -0.933732 -5.419359 0.297032 31.268989 -19.651393 31.035925 0.000003 47.565984 0.000015 8.869696 14.226003 6.719686 7.324665 6.128404 -3.633903 8.039876 -19.074427 -4.370748 -6.045119 -4.833768 -14.725898 0.000000 0.000002 0.000001 1.299706 2.682259 2.709118 0.457657 -2.015088 25.588861 0.411867 -1.916591 24.253921 -0.000003 -0.000001 -0.000003 -0.515639 -0.407408 13.260427 0.386745 -1.859841 23.491363 0.073221 -0.823446 10.162089 -0.000000 -0.000000 -0.000007 1.149876 -6.361033 18.180809 0.350005 -1.772970 22.332403 0.219445 -1.414127 17.640106 -0.000001 0.000001 -0.000005 -1.015053 -16.496177 19.616027 0.426081 -1.947813 24.675491 0.422377 -1.939735 24.566430 -0.000002 -0.000002 -0.000001 9.713794 20.162440 4.053555 74.281729 -7.841931 -2.824615 -3.363170 -14.753907 -14.378190 -60.599440 -3.871244 13.215074 -0.000000 0.000001 0.000001 -41.992020 -11.049284 15.956504 24.613891 -6.812014 0.337930 48.747023 2.070407 -13.908714 -8.467486 0.000008 0.000009 -0.000000 0.000002 0.000000 
-0.150743 71.824989 -1.271927 -15.787028 8.921530 9.258916 14.604261 -11.488778 2.476595 1.114966 -2.811294 -0.269204 1.133431 -2.791138 -0.245044 2.263841 -0.215687 0.709293 -2.235996 -6.386273 2.900036 -0.000000 -0.000000 -0.000000 1.004307 -4.772482 3.067585 21.672936 3.943928 -19.120807 0.000019 -47.609974 0.000003 24.814169 1.311225 -21.084818 3.842226 -6.823147 6.205179 7.464978 16.380233 4.234973 -9.774453 -4.771858 14.002047 -0.000001 0.000001 -0.000001 2.196825 17.061507 -23.551628 0.635517 2.655645 -26.911876 0.627153 2.639098 -26.730637 -0.000002 -0.000001 -0.000008 1.159850 6.272345 -21.146624 0.552629 2.485798 -25.064173 0.353534 2.006114 -19.987195 -0.000001 -0.000002 0.000003 -0.619634 0.371167 -14.289201 0.567977 2.518320 -25.415706 0.068410 0.893673 -8.755444 0.000002 -0.000004 0.000001 1.075110 -3.243716 -3.494610 0.516182 2.406377 -24.210135 0.437514 2.223311 -22.262670 -0.000000 -0.000000 0.000001 -0.243811 -0.668683 1.147352 36.026919 -13.842852 42.431918 0.000014 54.350117 -0.000007 2.251960 13.740005 0.881488 10.823720 9.777277 -3.723204 8.293531 -23.047427 -4.260684 -3.694234 -12.282648 -14.246158 0.000001 -0.000001 0.000001 2.292534 2.230850 4.994051 0.281755 -1.596869 20.011974 0.208795 -1.380207 17.203512 0.000001 -0.000005 -0.000002 -0.329915 -1.101285 12.649732 0.304292 -1.657402 20.805543 0.088071 -0.902385 11.148498 -0.000001 0.000001 -0.000004 1.438565 -7.611284 16.475758 0.311464 -1.676135 21.051960 0.173731 -1.261446 15.682577 0.000002 -0.000001 -0.000002 -4.318158 -17.159250 16.847230 0.392921 -1.874020 23.681398 0.386893 -1.860198 23.496126 -0.000000 -0.000001 -0.000003 2.741119 17.183906 1.554676 64.473277 -8.795916 -4.833237 1.244598 -16.973696 -26.627113 -53.603939 -10.979217 21.419147 0.000000 -0.000001 0.000001 -41.269939 -12.017650 15.602553 26.779900 -5.646133 1.893193 42.651547 5.096508 2.366096 -3.698872 1.548534 -11.771698 0.000000 -0.000000 0.000000 
-4.542524 77.711723 -1.609388 -9.424306 -3.093563 3.155461 13.689349 -9.886747 0.789333 0.935023 -2.454493 -0.319352 0.950740 -2.437913 -0.301804 1.665353 -1.336357 1.090383 -2.301295 -20.066539 10.172732 0.000001 -0.000003 0.000000 1.049488 -5.356785 2.230902 17.492606 2.307149 -24.046518 0.000016 -49.482528 0.000012 23.465023 4.346970 -14.624659 3.187426 -10.056893 7.139536 7.475950 17.827248 4.506365 -9.531482 -3.062712 14.598061 -0.000000 -0.000000 -0.000003 2.208901 17.539511 -23.987232 0.661714 2.706590 -27.472013 0.648701 2.681473 -27.195448 0.000000 0.000003 -0.000007 1.281201 6.546852 -21.481606 0.581574 2.546713 -25.723455 0.360939 2.026326 -20.197493 -0.000001 -0.000004 0.000007 -0.583714 0.456236 -14.048015 0.549080 2.478149 -24.981810 0.062634 0.855364 -8.377283 -0.000000 -0.000006 0.000004 1.455652 -3.418370 -4.524590 0.375080 2.064328 -20.593389 0.275312 1.776508 -17.617684 0.000000 0.000003 0.000002 0.337763 4.003725 1.829292 36.294020 -6.045606 50.410665 0.000028 61.118363 0.000003 -3.237700 14.062372 -3.859704 14.223115 13.422261 -4.163760 8.517505 -26.865157 -4.158432 -1.505054 -19.482998 -13.332564 0.000001 -0.000001 0.000002 3.284022 1.901826 7.198778 0.150521 -1.175679 14.591463 0.076502 -0.841541 10.388023 -0.000001 -0.000001 0.000001 -0.162376 -1.780447 12.031297 0.233137 -1.456470 18.186799 0.103343 -0.976693 12.079933 -0.000001 0.000002 -0.000004 1.646744 -8.839322 14.835710 0.275176 -1.578669 19.774308 0.135376 -1.115858 13.833603 -0.000001 -0.000000 -0.000003 -7.633531 -17.596903 14.126609 0.360514 -1.798345 22.669787 0.352394 -1.778798 22.409808 -0.000000 -0.000003 0.000003 -3.328684 15.081486 -1.263256 57.030724 -8.023473 -6.334638 -6.337851 -10.594438 -27.272628 -39.478548 -5.800673 18.143412 -0.000000 0.000000 -0.000002 -38.676633 -11.045840 13.995102 23.698294 0.658464 3.167377 36.679711 5.385262 16.546219 2.142921 5.426911 -21.595571 0.000000 -0.000000 0.000001 
